<?xml version="1.0"?>
<svg xmlns="http://www.w3.org/2000/svg" viewBox="0 0 64 64" width="512" height="512"><g id="Robot"><path d="M43,26a3,3,0,0,0,3-3V9a3,3,0,0,0-3-3H21a3,3,0,0,0-3,3V23a3,3,0,0,0,3,3ZM20,23V9a1,1,0,0,1,1-1H43a1,1,0,0,1,1,1V23a1,1,0,0,1-1,1H21A1,1,0,0,1,20,23Z"/><path d="M26,19a3,3,0,1,0-3-3A3,3,0,0,0,26,19Zm0-4a1,1,0,1,1-1,1A1,1,0,0,1,26,15Z"/><path d="M38,19a3,3,0,1,0-3-3A3,3,0,0,0,38,19Zm0-4a1,1,0,1,1-1,1A1,1,0,0,1,38,15Z"/><path d="M32,42a3,3,0,0,0,3-3V37a3,3,0,0,0-6,0v2A3,3,0,0,0,32,42Zm-1-5a1,1,0,0,1,2,0v2a1,1,0,0,1-2,0Z"/><path d="M36,39a4,4,0,0,1-8,0V38H26v1a6.006,6.006,0,0,0,5,5.91V47H29v2h6V47H33V44.91A6.006,6.006,0,0,0,38,39V38H36Z"/><path d="M59,34H53a3,3,0,0,0-3,3v4H48V35a1,1,0,0,0-.052-.316L46.321,29.8A4.992,4.992,0,0,0,50,25V21h2a2,2,0,0,0,2-2V13a2,2,0,0,0-2-2H50V7a5.006,5.006,0,0,0-5-5H19a5.006,5.006,0,0,0-5,5v4H12a2,2,0,0,0-2,2v6a2,2,0,0,0,2,2h2v4a4.992,4.992,0,0,0,3.679,4.8l-1.627,4.884A1,1,0,0,0,16,35v6H14V37a3,3,0,0,0-3-3H5a3,3,0,0,0-3,3V59a3,3,0,0,0,3,3h6a3,3,0,0,0,3-3V55h2v1a3,3,0,0,0,3,3H45a3,3,0,0,0,3-3V55h2v4a3,3,0,0,0,3,3h6a3,3,0,0,0,3-3V37A3,3,0,0,0,59,34ZM52,13v6H50V13ZM12,19V13h2v6ZM60,49.586l-8,8V54.414l8-8Zm0-6-8,8V48.414l8-8ZM60,37v.586l-8,8V42.414L58.414,36H59A1,1,0,0,1,60,37Zm-7-1h2.586L52,39.586V37A1,1,0,0,1,53,36ZM16,25V7a3,3,0,0,1,3-3H45a3,3,0,0,1,3,3V25a3,3,0,0,1-3,3H19A3,3,0,0,1,16,25ZM4,48.414l8-8v3.172l-8,8Zm0,9.172V54.414l8-8v3.172ZM12,37v.586l-8,8V42.414L10.414,36H11A1,1,0,0,1,12,37ZM5,36H7.586L4,39.586V37A1,1,0,0,1,5,36ZM4.54,59.874,12,52.414v3.172L7.586,60H5A.974.974,0,0,1,4.54,59.874ZM11,60h-.586L12,58.414V59A1,1,0,0,1,11,60Zm3-7V43h2V53Zm25,4H25V56a3,3,0,0,1,3-3h8a3,3,0,0,1,3,3Zm7-1a1,1,0,0,1-1,1H41V56a5.006,5.006,0,0,0-5-5H28a5.006,5.006,0,0,0-5,5v1H19a1,1,0,0,1-1-1V35.162L19.721,30H44.279L46,35.162Zm2-3V43h2V53Zm4.54,6.874L60,52.414v3.172L55.586,60H53A.974.974,0,0,1,52.54,59.874ZM59,60h-.586L60,58.414V59A1,1,0,0,1,59,60Z"/></g></svg>
