<?xml version="1.0" standalone="no"?>
<!DOCTYPE svg PUBLIC "-//W3C//DTD SVG 20010904//EN"
 "http://www.w3.org/TR/2001/REC-SVG-20010904/DTD/svg10.dtd">
<svg version="1.0" xmlns="http://www.w3.org/2000/svg"
 width="90.000000pt" height="90.000000pt" viewBox="0 0 90.000000 90.000000"
 preserveAspectRatio="xMidYMid meet">

<g transform="translate(0.000000,90.000000) scale(0.100000,-0.100000)"
fill="#000000" stroke="none">
<path d="M220 850 c-13 -13 -20 -33 -20 -58 0 -33 -4 -39 -30 -49 -28 -11 -30
-14 -30 -68 0 -54 2 -57 30 -68 26 -10 30 -16 30 -50 0 -28 7 -44 24 -59 22
-20 22 -23 10 -66 -8 -25 -14 -60 -14 -79 0 -18 -4 -33 -10 -33 -5 0 -10 14
-10 31 0 58 -14 69 -83 69 -36 0 -68 -5 -75 -12 -17 -17 -17 -349 0 -366 7 -7
39 -12 75 -12 69 0 83 11 83 69 0 38 15 40 32 3 l13 -27 205 0 205 0 13 28
c17 36 32 34 32 -4 0 -58 14 -69 83 -69 36 0 68 5 75 12 17 17 17 349 0 366
-7 7 -39 12 -75 12 -69 0 -83 -11 -83 -69 0 -17 -4 -31 -10 -31 -5 0 -10 15
-10 33 0 19 -6 54 -14 79 -12 43 -12 46 10 66 17 15 24 31 24 59 0 34 4 40 30
50 28 11 30 14 30 68 0 54 -2 57 -30 68 -26 10 -30 16 -30 49 0 25 -7 45 -20
58 -19 19 -33 20 -230 20 -197 0 -211 -1 -230 -20z m445 -175 l0 -160 -215 0
-215 0 -3 150 c-1 82 0 155 2 162 4 11 50 13 218 11 l213 -3 0 -160z m-465 0
c0 -33 -4 -45 -15 -45 -11 0 -15 12 -15 45 0 33 4 45 15 45 11 0 15 -12 15
-45z m530 0 c0 -33 -4 -45 -15 -45 -11 0 -15 12 -15 45 0 33 4 45 15 45 11 0
15 -12 15 -45z m-97 -222 c7 -18 12 -85 12 -188 l0 -160 -32 -3 c-23 -2 -33 1
-33 11 0 8 -9 26 -21 41 -19 25 -25 26 -109 26 -84 0 -90 -1 -109 -26 -12 -15
-21 -33 -21 -41 0 -10 -10 -13 -32 -11 l-33 3 0 160 c0 103 5 170 12 188 l13
27 170 0 170 0 13 -27z m-533 -66 c0 -2 -9 -12 -20 -22 -19 -18 -20 -17 -20 3
0 15 6 22 20 22 11 0 20 -2 20 -3z m70 -5 c0 -4 -25 -32 -55 -62 -42 -42 -55
-50 -55 -35 0 22 77 105 97 105 7 0 13 -4 13 -8z m600 5 c0 -2 -9 -12 -20 -22
-19 -18 -20 -17 -20 3 0 15 6 22 20 22 11 0 20 -2 20 -3z m70 -10 c0 -7 -25
-37 -55 -67 -50 -49 -55 -52 -55 -30 0 15 16 41 42 67 42 43 68 54 68 30z
m-724 -146 c-51 -51 -56 -54 -56 -31 0 16 18 43 53 78 47 48 52 51 55 31 3
-16 -12 -38 -52 -78z m672 2 c-40 -40 -54 -50 -56 -37 -2 10 18 39 50 71 40
40 54 50 56 37 2 -10 -18 -39 -50 -71z m-568 -8 c0 -43 -4 -75 -10 -75 -6 0
-10 32 -10 75 0 43 4 75 10 75 6 0 10 -32 10 -75z m480 0 c0 -43 -4 -75 -10
-75 -6 0 -10 32 -10 75 0 43 4 75 10 75 6 0 10 -32 10 -75z m-582 -72 c-40
-40 -54 -50 -56 -37 -2 10 18 39 50 71 40 40 54 50 56 37 2 -10 -18 -39 -50
-71z m676 -4 c-27 -27 -52 -49 -56 -49 -23 0 -2 40 45 88 46 47 52 51 55 31 3
-15 -11 -36 -44 -70z m-650 -60 c-16 -17 -38 -29 -53 -29 -24 0 -22 3 24 51
45 45 50 48 53 28 2 -13 -7 -32 -24 -50z m394 49 c31 -31 14 -38 -88 -38 -102
0 -119 7 -88 38 16 16 160 16 176 0z m276 -49 c-15 -16 -37 -29 -48 -29 -17 0
-12 8 24 46 34 34 46 41 48 29 2 -10 -9 -30 -24 -46z"/>
<path d="M272 804 c-21 -14 -22 -23 -22 -129 0 -150 -7 -145 202 -145 203 0
198 -3 198 145 0 148 5 145 -198 145 -126 0 -162 -3 -180 -16z m343 -129 l0
-110 -165 0 -165 0 -3 99 c-1 55 0 106 2 113 4 11 39 13 168 11 l163 -3 0
-110z"/>
<path d="M334 699 c-19 -22 -13 -43 19 -63 12 -8 21 -5 36 8 26 23 26 38 3 59
-24 22 -35 21 -58 -4z m40 -30 c-3 -5 -10 -7 -15 -3 -5 3 -7 10 -3 15 3 5 10
7 15 3 5 -3 7 -10 3 -15z"/>
<path d="M504 699 c-13 -15 -16 -24 -8 -36 20 -32 41 -38 63 -19 26 23 26 38
3 59 -24 22 -35 21 -58 -4z m40 -30 c-3 -5 -10 -7 -15 -3 -5 3 -7 10 -3 15 3
5 10 7 15 3 5 -3 7 -10 3 -15z"/>
<path d="M421 406 c-17 -20 -10 -77 12 -90 25 -16 51 4 55 43 4 36 -12 61 -38
61 -10 0 -23 -6 -29 -14z m39 -41 c0 -14 -4 -25 -10 -25 -5 0 -10 11 -10 25 0
14 5 25 10 25 6 0 10 -11 10 -25z"/>
<path d="M372 338 c2 -24 12 -38 35 -53 34 -21 43 -45 18 -45 -8 0 -15 -7 -15
-15 0 -11 11 -15 40 -15 29 0 40 4 40 15 0 8 -7 15 -15 15 -25 0 -16 24 18 45
23 15 33 29 35 53 4 41 -9 41 -28 -1 -13 -27 -20 -32 -50 -32 -30 0 -37 5 -50
32 -19 42 -32 42 -28 1z"/>
</g>
</svg>
